<?xml version="1.0" standalone="no"?>
<!DOCTYPE svg PUBLIC "-//W3C//DTD SVG 20010904//EN"
 "http://www.w3.org/TR/2001/REC-SVG-20010904/DTD/svg10.dtd">
<svg version="1.0" xmlns="http://www.w3.org/2000/svg"
 width="128.000000pt" height="128.000000pt" viewBox="0 0 128.000000 128.000000"
 preserveAspectRatio="xMidYMid meet">
<metadata>
Created by potrace 1.11, written by Peter Selinger 2001-2013
</metadata>
<g transform="translate(0.000000,128.000000) scale(0.100000,-0.100000)"
fill="#000000" stroke="none">
<path d="M375 1145 l-270 -124 -1 -39 c-1 -22 -5 -45 -9 -52 -5 -8 -4 -11 2
-7 9 6 15 -39 17 -140 1 -18 3 -33 6 -33 7 0 5 -48 -2 -56 -3 -3 0 -17 8 -32
9 -19 10 -30 2 -39 -6 -7 -6 -13 -1 -13 5 0 11 -21 12 -46 0 -26 3 -50 6 -54
3 -5 -1 -11 -7 -13 -10 -4 -10 -6 0 -6 7 -1 12 -15 12 -35 0 -36 35 -86 59
-86 7 0 9 -4 6 -10 -3 -6 0 -10 8 -10 8 0 19 -10 26 -23 6 -12 9 -14 7 -4 -3
9 -4 17 -2 17 11 0 74 -58 69 -64 -3 -3 1 -6 9 -6 8 0 27 -11 42 -25 15 -14
40 -32 56 -40 32 -17 53 -47 42 -61 -4 -5 0 -3 9 4 13 10 19 9 29 -2 6 -9 8
-21 4 -28 -6 -9 -3 -9 9 1 15 12 17 12 12 -2 -4 -8 -1 -18 6 -23 8 -5 10 -3 4
6 -5 8 -3 11 6 8 8 -3 13 -10 12 -16 -2 -7 4 -9 14 -5 11 4 14 3 9 -5 -4 -7
-2 -12 4 -12 6 0 8 -5 4 -13 -5 -7 0 -6 11 3 17 14 17 13 12 -10 -4 -14 -4
-19 -1 -12 3 6 10 12 15 12 6 0 7 -5 3 -11 -4 -7 2 -6 17 2 23 12 23 11 9 -6
-13 -17 -13 -18 0 -10 8 5 21 10 28 11 8 2 17 6 20 10 4 4 -1 4 -10 1 -10 -4
-18 -2 -18 3 0 6 4 10 8 10 5 0 19 10 32 23 14 12 29 22 35 22 5 1 9 7 7 15
-3 11 0 11 13 0 13 -11 15 -10 9 3 -3 10 3 20 17 27 12 7 31 23 43 37 12 13
31 25 42 26 12 0 20 6 17 13 -2 6 9 19 24 29 15 10 32 24 36 32 4 7 15 13 23
13 8 0 12 4 9 10 -3 5 0 7 8 4 8 -3 18 0 23 7 5 8 3 10 -7 5 -8 -4 -3 1 10 12
14 11 33 18 44 16 16 -3 17 -1 5 13 -11 15 -11 16 4 10 13 -4 15 -2 11 11 -6
15 -5 15 10 3 15 -12 17 -12 11 4 -5 13 -4 16 5 11 6 -4 11 -4 10 1 -3 18 1
34 9 29 4 -2 6 18 5 45 -2 28 1 48 5 45 5 -3 7 5 5 18 -3 13 0 34 7 46 10 18
9 21 -1 15 -8 -5 -10 -4 -5 4 10 15 17 56 19 104 1 20 5 37 10 37 5 0 6 9 2
20 -3 11 -3 25 1 32 5 7 7 26 5 42 -2 20 1 26 9 21 9 -6 9 -2 1 14 -7 12 -8
21 -2 21 5 0 7 10 3 22 -4 16 -2 19 8 13 9 -6 11 -4 4 6 -4 7 -7 28 -5 45 3
34 3 34 -174 112 -44 19 -118 52 -163 73 -46 22 -86 39 -88 39 -2 0 -32 14
-66 30 -34 17 -64 30 -67 30 -3 0 -127 -56 -276 -125z"/>
<path d="M155 380 c-3 -5 -1 -10 4 -10 6 0 11 5 11 10 0 6 -2 10 -4 10 -3 0
-8 -4 -11 -10z"/>
<path d="M267 307 c-3 -8 1 -14 9 -14 16 0 19 13 5 21 -5 3 -11 0 -14 -7z"/>
<path d="M301 274 c0 -11 3 -14 6 -6 3 7 2 16 -1 19 -3 4 -6 -2 -5 -13z"/>
<path d="M970 282 c0 -5 7 -9 15 -9 8 0 12 4 9 9 -3 4 -9 8 -15 8 -5 0 -9 -4
-9 -8z"/>
<path d="M330 256 c0 -2 7 -7 16 -10 8 -3 12 -2 9 4 -6 10 -25 14 -25 6z"/>
<path d="M950 250 c-9 -6 -10 -10 -3 -10 6 0 15 5 18 10 8 12 4 12 -15 0z"/>
<path d="M415 190 c-3 -5 -1 -10 4 -10 6 0 11 5 11 10 0 6 -2 10 -4 10 -3 0
-8 -4 -11 -10z"/>
<path d="M444 170 c0 -13 4 -16 10 -10 7 7 7 13 0 20 -6 6 -10 3 -10 -10z"/>
<path d="M490 140 c0 -5 5 -10 11 -10 5 0 7 5 4 10 -3 6 -8 10 -11 10 -2 0 -4
-4 -4 -10z"/>
</g>
</svg>
